<?xml version="1.0" encoding="utf-8"?>
<!-- Generated by Mocodo 4.2.12 -->
<svg width="221" height="272" viewBox="0 0 221 272" xmlns="http://www.w3.org/2000/svg">
<rect x="0" y="0" width="221" height="272" fill="#ffffbf" stroke="none" stroke-width="0"/>

<!-- Association COMPOSER -->
<g>
	<line x1="57" y1="136" x2="170" y2="43" stroke="#f46d43" stroke-width="2"/>
	<line x1="57" y1="43" x2="170" y2="43" stroke="#f46d43" stroke-width="2"/>
	<g>
		<path d="M198 18 a14 14 90 0 1 14 14 V43 h-84 V32 a14 14 90 0 1 14 -14" fill="#fdae61" stroke="#fdae61" stroke-width="0"/>
		<path d="M212 43 v11 a14 14 90 0 1 -14 14 H142 a14 14 90 0 1 -14 -14 V43 H84" fill="#fee08b" stroke="#fee08b" stroke-width="0"/>
		<rect x="128" y="18" width="84" height="50" fill="none" rx="14" stroke="#f46d43" stroke-width="2"/>
		<line x1="128" y1="43" x2="212" y2="43" stroke="#f46d43" stroke-width="1"/>
		<text x="135" y="35.75" fill="#000000" font-family="Verdana" font-size="12">COMPOSER</text>
	</g>
	<text x="98" y="117.27" fill="#3288bd" font-family="Verdana" font-size="12">1,1</text>
	<text x="101" y="60" fill="#3288bd" font-family="Verdana" font-size="12">1,N</text>
</g>

<!-- Association ASSOCIER -->
<g>
	<line x1="57" y1="229" x2="170" y2="136" stroke="#f46d43" stroke-width="2"/>
	<line x1="57" y1="136" x2="170" y2="136" stroke="#f46d43" stroke-width="2"/>
	<g>
		<path d="M195 111 a14 14 90 0 1 14 14 V136 h-78 V125 a14 14 90 0 1 14 -14" fill="#fdae61" stroke="#fdae61" stroke-width="0"/>
		<path d="M209 136 v11 a14 14 90 0 1 -14 14 H145 a14 14 90 0 1 -14 -14 V136 H78" fill="#fee08b" stroke="#fee08b" stroke-width="0"/>
		<rect x="131" y="111" width="78" height="50" fill="none" rx="14" stroke="#f46d43" stroke-width="2"/>
		<line x1="131" y1="136" x2="209" y2="136" stroke="#f46d43" stroke-width="1"/>
		<text x="138" y="128.75" fill="#000000" font-family="Verdana" font-size="12">ASSOCIER</text>
	</g>
	<text x="78.42" y="187" fill="#3288bd" font-family="Verdana" font-size="12">1,1</text>
	<text x="98" y="153" fill="#3288bd" font-family="Verdana" font-size="12">0,N</text>
</g>

<!-- Entity ARTISTE -->
<g>
	<g>
		<rect x="18" y="9" width="78" height="25" fill="#abdda4" stroke="none" stroke-width="0" opacity="1"/>
		<rect x="18" y="34" width="78" height="43" fill="#e6f598" stroke="none" stroke-width="0" opacity="1"/>
		<rect x="18" y="9" width="78" height="68" fill="none" stroke="#66c2a5" stroke-width="2" opacity="1"/>
		<line x1="18" y1="34" x2="96" y2="34" stroke="#66c2a5" stroke-width="1"/>
	</g>
	<text x="31" y="26.75" fill="#000000" font-family="Verdana" font-size="12">ARTISTE</text>
	<text x="23" y="51.8" fill="#000000" font-family="Verdana" font-size="12">nom</text>
	<line x1="23" y1="54" x2="51" y2="54" stroke="#000000" stroke-width="1"/>
	<text x="23" y="68.8" fill="#000000" font-family="Verdana" font-size="12">instrument</text>
</g>

<!-- Entity MORCEAU -->
<g>
	<g>
		<rect x="21" y="102" width="72" height="25" fill="#abdda4" stroke="none" stroke-width="0" opacity="1"/>
		<rect x="21" y="127" width="72" height="43" fill="#e6f598" stroke="none" stroke-width="0" opacity="1"/>
		<rect x="21" y="102" width="72" height="68" fill="none" stroke="#66c2a5" stroke-width="2" opacity="1"/>
		<line x1="21" y1="127" x2="93" y2="127" stroke="#66c2a5" stroke-width="1"/>
	</g>
	<text x="26" y="119.75" fill="#000000" font-family="Verdana" font-size="12">MORCEAU</text>
	<text x="26" y="144.8" fill="#000000" font-family="Verdana" font-size="12">nom</text>
	<line x1="26" y1="147" x2="54" y2="147" stroke="#000000" stroke-width="1"/>
	<text x="26" y="161.8" fill="#000000" font-family="Verdana" font-size="12">année</text>
</g>

<!-- Entity PARTITION -->
<g>
	<g>
		<rect x="9" y="195" width="96" height="25" fill="#abdda4" stroke="none" stroke-width="0" opacity="1"/>
		<rect x="9" y="220" width="96" height="43" fill="#e6f598" stroke="none" stroke-width="0" opacity="1"/>
		<rect x="9" y="195" width="96" height="68" fill="none" stroke="#66c2a5" stroke-width="2" opacity="1"/>
		<line x1="9" y1="220" x2="105" y2="220" stroke="#66c2a5" stroke-width="1"/>
	</g>
	<text x="23" y="212.75" fill="#000000" font-family="Verdana" font-size="12">PARTITION</text>
	<text x="14" y="237.8" fill="#000000" font-family="Verdana" font-size="12">nom fichier</text>
	<line x1="14" y1="240" x2="83" y2="240" stroke="#000000" stroke-width="1"/>
	<text x="14" y="254.8" fill="#000000" font-family="Verdana" font-size="12">chemin fichier</text>
</g>
</svg>